<svg xmlns="http://www.w3.org/2000/svg" viewBox="0 0 512 512"><defs><style>.cls-1{fill:#211915;}</style></defs><title>50-Computer-hardware-Line-Icons</title><g id="_06" data-name="06"><path class="cls-1" d="M203.33,461H178.8a9.33,9.33,0,0,1-9.31-9.31V441.32a2.5,2.5,0,1,1,5,0v10.39A4.32,4.32,0,0,0,178.8,456h24.53a4.32,4.32,0,0,0,4.31-4.31V441.32a2.5,2.5,0,0,1,5,0v10.39A9.33,9.33,0,0,1,203.33,461Z"/><path class="cls-1" d="M333.2,461H308.67a9.33,9.33,0,0,1-9.31-9.31V441.32a2.5,2.5,0,0,1,5,0v10.39a4.32,4.32,0,0,0,4.31,4.31H333.2a4.32,4.32,0,0,0,4.31-4.31V441.32a2.5,2.5,0,1,1,5,0v10.39A9.33,9.33,0,0,1,333.2,461Z"/><path class="cls-1" d="M152.54,343.13a2.5,2.5,0,0,1-2.5-2.5V82.92a22,22,0,0,1,22-22H340a22,22,0,0,1,16.2,7.15,2.5,2.5,0,0,1-3.69,3.37A17,17,0,0,0,340,66H172a17,17,0,0,0-17,17V340.63A2.5,2.5,0,0,1,152.54,343.13Z"/><path class="cls-1" d="M340,443.82H172a22,22,0,0,1-22-21.95v-26.7a2.5,2.5,0,0,1,5,0v26.7a17,17,0,0,0,17,16.95H340A17,17,0,0,0,357,421.87V105.08a2.5,2.5,0,1,1,5,0V421.87A22,22,0,0,1,340,443.82Z"/><path class="cls-1" d="M256,424.07a48.36,48.36,0,1,1,27-88.46,2.5,2.5,0,1,1-2.8,4.14,43.37,43.37,0,1,0,19.12,36,2.5,2.5,0,1,1,5,0A48.41,48.41,0,0,1,256,424.07Z"/><path class="cls-1" d="M256,372.22a7.5,7.5,0,0,1-7.5-7.5V345.63a7.5,7.5,0,0,1,15,0v19.09A7.5,7.5,0,0,1,256,372.22Zm0-29.09a2.5,2.5,0,0,0-2.5,2.5v19.09a2.5,2.5,0,0,0,5,0V345.63A2.5,2.5,0,0,0,256,343.13Z"/><path class="cls-1" d="M256,408.36a32.56,32.56,0,0,1-10.24-1.64,2.5,2.5,0,0,1,1.57-4.75,27.65,27.65,0,0,0,31.56-41.77,2.5,2.5,0,0,0-3.47-.66,2.47,2.47,0,0,0-1.06,1.59,2.54,2.54,0,0,0,.39,1.88,22.65,22.65,0,1,1-37.5,0,2.54,2.54,0,0,0,.39-1.88,2.47,2.47,0,0,0-1.06-1.59,2.43,2.43,0,0,0-1.87-.39,2.48,2.48,0,0,0-1.6,1.05,27.63,27.63,0,0,0-2.47,26.52,2.5,2.5,0,0,1-4.58,2A32.61,32.61,0,0,1,229,357.39a7.5,7.5,0,0,1,13.57,2.81,7.51,7.51,0,0,1-1.16,5.62,17.49,17.49,0,0,0-3,9.89,17.65,17.65,0,1,0,35.3,0,17.49,17.49,0,0,0-3-9.89A7.5,7.5,0,0,1,283,357.39a32.64,32.64,0,0,1-27,51Z"/><path class="cls-1" d="M338.1,311.86H173.9a2.5,2.5,0,0,1-2.5-2.5V285.07a2.5,2.5,0,0,1,2.5-2.5h89.72a2.5,2.5,0,0,1,0,5H176.4v19.29H335.6V287.57H316.7a2.5,2.5,0,0,1,0-5h21.4a2.5,2.5,0,0,1,2.5,2.5v24.29A2.5,2.5,0,0,1,338.1,311.86Z"/><path class="cls-1" d="M359.46,266.1a2.5,2.5,0,0,1-.66-.09l-73.31-20a2.49,2.49,0,0,1-1.84-2.41V63.47a2.5,2.5,0,0,1,5,0V241.69l71.47,19.5a2.5,2.5,0,0,1-.66,4.91Z"/><path class="cls-1" d="M359.46,237.89a2.5,2.5,0,0,1-.66-.09l-73.31-20a2.5,2.5,0,0,1,1.32-4.82l73.31,20a2.5,2.5,0,0,1-.66,4.91Z"/><path class="cls-1" d="M359.46,209.68a2.5,2.5,0,0,1-.66-.09l-73.31-20a2.5,2.5,0,0,1,1.32-4.82l73.31,20a2.5,2.5,0,0,1-.66,4.91Z"/><path class="cls-1" d="M359.46,181.47a2.5,2.5,0,0,1-.66-.09l-73.31-20a2.5,2.5,0,0,1,1.32-4.82l73.31,20a2.5,2.5,0,0,1-.66,4.91Z"/><path class="cls-1" d="M359.46,153.26a2.5,2.5,0,0,1-.66-.09l-73.31-20a2.5,2.5,0,0,1,1.32-4.83l73.31,20a2.51,2.51,0,0,1-.66,4.92Z"/><path class="cls-1" d="M304.72,110.11a2.5,2.5,0,0,1-.66-.09L285.49,105a2.5,2.5,0,0,1,1.32-4.83l18.56,5.07a2.5,2.5,0,0,1-.65,4.91Z"/><path class="cls-1" d="M359.46,125.05a2.5,2.5,0,0,1-.66-.09l-23.37-6.38a2.5,2.5,0,0,1,1.32-4.82l23.37,6.37a2.51,2.51,0,0,1-.66,4.92Z"/><path class="cls-1" d="M152.54,266.1a2.5,2.5,0,0,1-.66-4.91l71.47-19.5V63.47a2.5,2.5,0,0,1,5,0V243.6a2.49,2.49,0,0,1-1.84,2.41L153.2,266A2.5,2.5,0,0,1,152.54,266.1Z"/><path class="cls-1" d="M152.54,237.89a2.5,2.5,0,0,1-.66-4.91l73.31-20a2.5,2.5,0,0,1,1.32,4.82l-73.31,20A2.5,2.5,0,0,1,152.54,237.89Z"/><path class="cls-1" d="M152.54,209.68a2.5,2.5,0,0,1-.66-4.91l73.31-20a2.5,2.5,0,0,1,1.32,4.82l-73.31,20A2.5,2.5,0,0,1,152.54,209.68Z"/><path class="cls-1" d="M152.54,181.47a2.5,2.5,0,0,1-.66-4.91l73.31-20a2.5,2.5,0,0,1,1.32,4.82l-73.31,20A2.5,2.5,0,0,1,152.54,181.47Z"/><path class="cls-1" d="M152.54,153.26a2.51,2.51,0,0,1-.66-4.92l73.31-20a2.5,2.5,0,0,1,1.32,4.83l-73.31,20A2.5,2.5,0,0,1,152.54,153.26Z"/><path class="cls-1" d="M207.28,110.11a2.5,2.5,0,0,1-.65-4.91l18.56-5.07a2.5,2.5,0,0,1,1.32,4.83L207.94,110A2.5,2.5,0,0,1,207.28,110.11Z"/><path class="cls-1" d="M152.54,125.05a2.51,2.51,0,0,1-.66-4.92l23.37-6.37a2.5,2.5,0,1,1,1.32,4.82L153.2,125A2.5,2.5,0,0,1,152.54,125.05Z"/></g></svg>