<svg xmlns="http://www.w3.org/2000/svg" viewBox="0 0 512 512"><defs><style>.cls-1{fill:#211915;}</style></defs><title>50-Computer-hardware-Line-Icons</title><g id="_16" data-name="16"><path class="cls-1" d="M173.33,431.75H148.8a9.33,9.33,0,0,1-9.31-9.31V412.05a2.5,2.5,0,1,1,5,0v10.39a4.32,4.32,0,0,0,4.31,4.31h24.53a4.32,4.32,0,0,0,4.31-4.31V412.05a2.5,2.5,0,0,1,5,0v10.39A9.33,9.33,0,0,1,173.33,431.75Z"/><path class="cls-1" d="M363.2,431.75H338.67a9.33,9.33,0,0,1-9.31-9.31V412.05a2.5,2.5,0,0,1,5,0v10.39a4.32,4.32,0,0,0,4.31,4.31H363.2a4.32,4.32,0,0,0,4.31-4.31V412.05a2.5,2.5,0,1,1,5,0v10.39A9.33,9.33,0,0,1,363.2,431.75Z"/><path class="cls-1" d="M372.93,414.55H139.07a41.67,41.67,0,0,1-41.62-41.62V139.07a41.67,41.67,0,0,1,41.62-41.62h22a2.5,2.5,0,0,1,0,5h-22a36.66,36.66,0,0,0-36.62,36.62V372.93a36.66,36.66,0,0,0,36.62,36.62H372.93a36.66,36.66,0,0,0,36.62-36.62V362.05a2.5,2.5,0,0,1,5,0v10.88A41.67,41.67,0,0,1,372.93,414.55Zm39.12-117.31a2.5,2.5,0,0,1-2.5-2.5V139.07a36.66,36.66,0,0,0-36.62-36.62H246a2.5,2.5,0,0,1,0-5H372.93a41.67,41.67,0,0,1,41.62,41.62V294.74A2.5,2.5,0,0,1,412.05,297.24Z"/><path class="cls-1" d="M377.05,152.45a17.52,17.52,0,0,1-17.5-17.5,2.5,2.5,0,0,1,5,0,12.5,12.5,0,1,0,12.5-12.5,2.5,2.5,0,0,1,0-5,17.5,17.5,0,1,1,0,35Z"/><path class="cls-1" d="M377.05,394.55a17.52,17.52,0,0,1-17.5-17.5,2.5,2.5,0,0,1,5,0,12.5,12.5,0,1,0,12.5-12.5,2.5,2.5,0,0,1,0-5,17.5,17.5,0,0,1,0,35Z"/><path class="cls-1" d="M135,394.55a17.52,17.52,0,0,1-17.5-17.5,2.5,2.5,0,0,1,5,0,12.5,12.5,0,1,0,12.5-12.5,2.5,2.5,0,0,1,0-5,17.5,17.5,0,0,1,0,35Z"/><path class="cls-1" d="M135,152.45a17.52,17.52,0,0,1-17.5-17.5,2.5,2.5,0,0,1,5,0,12.5,12.5,0,1,0,12.5-12.5,2.5,2.5,0,0,1,0-5,17.5,17.5,0,1,1,0,35Z"/><path class="cls-1" d="M256,398.5c-78.57,0-142.5-63.93-142.5-142.5S177.43,113.5,256,113.5,398.5,177.43,398.5,256,334.57,398.5,256,398.5Zm0-280c-75.82,0-137.5,61.68-137.5,137.5S180.18,393.5,256,393.5,393.5,331.82,393.5,256,331.82,118.5,256,118.5Z"/><path class="cls-1" d="M266,378.08a2.5,2.5,0,0,1-2.5-2.5V355.5a2.5,2.5,0,0,1,2.25-2.49,97.06,97.06,0,0,0,49.48-19.61,2.5,2.5,0,0,1,3,4,102.12,102.12,0,0,1-49.77,20.37v15.09A117.71,117.71,0,0,0,372.83,268.5H357.74a102.25,102.25,0,0,1-4.43,19.73,2.5,2.5,0,0,1-4.75-1.58,96.68,96.68,0,0,0,4.45-20.9,2.5,2.5,0,0,1,2.49-2.25h20.08a2.5,2.5,0,0,1,2.49,2.71A122.67,122.67,0,0,1,266.21,378.07Zm-20,0h-.21A122.67,122.67,0,0,1,133.93,266.21a2.5,2.5,0,0,1,2.49-2.71H156.5a2.5,2.5,0,0,1,2.49,2.25A97.68,97.68,0,0,0,246.25,353a2.5,2.5,0,0,1,2.25,2.49v20.08a2.5,2.5,0,0,1-2.5,2.5ZM139.17,268.5A117.71,117.71,0,0,0,243.5,372.83V357.74a102.71,102.71,0,0,1-89.24-89.24Zm236.41-20H355.5a2.5,2.5,0,0,1-2.49-2.25A97.68,97.68,0,0,0,265.75,159a2.5,2.5,0,0,1-2.25-2.49V136.42a2.5,2.5,0,0,1,2.71-2.49A122.67,122.67,0,0,1,378.07,245.79a2.5,2.5,0,0,1-2.49,2.71Zm-17.84-5h15.09A117.71,117.71,0,0,0,268.5,139.17v15.09A102.71,102.71,0,0,1,357.74,243.5Zm-201.24,5H136.42a2.5,2.5,0,0,1-2.49-2.71,122.21,122.21,0,0,1,38.34-79.13,2.5,2.5,0,1,1,3.42,3.65,117.2,117.2,0,0,0-36.52,73.19h15.09a102.71,102.71,0,0,1,89.24-89.24V139.17a116.17,116.17,0,0,0-25.43,5.62,2.5,2.5,0,1,1-1.62-4.74,122.3,122.3,0,0,1,29.34-6.12,2.5,2.5,0,0,1,2.71,2.49V156.5a2.5,2.5,0,0,1-2.25,2.49A97.68,97.68,0,0,0,159,246.25,2.5,2.5,0,0,1,156.5,248.5Z"/><path class="cls-1" d="M266,337.88a2.52,2.52,0,0,1-2.5-2.5V315.16a2.51,2.51,0,0,1,2.09-2.47,57.43,57.43,0,0,0,47.1-47.1,2.51,2.51,0,0,1,2.47-2.09h20.22a2.51,2.51,0,0,1,2.48,2.81,82.37,82.37,0,0,1-71.55,71.55Zm2.5-20.64V332.5a77.39,77.39,0,0,0,64-64H317.24A62.49,62.49,0,0,1,268.5,317.24ZM246,337.88l-.31,0a82.37,82.37,0,0,1-71.55-71.55,2.51,2.51,0,0,1,2.48-2.81h20.22a2.51,2.51,0,0,1,2.47,2.09,56.79,56.79,0,0,0,5,15.63,2.51,2.51,0,0,1-1.15,3.35,2.48,2.48,0,0,1-3.34-1.15,61.6,61.6,0,0,1-5.09-14.92H179.5a77.39,77.39,0,0,0,64,64V317.24a62.21,62.21,0,0,1-17.09-6.2,2.5,2.5,0,0,1,2.37-4.4,56.82,56.82,0,0,0,17.63,6.05,2.51,2.51,0,0,1,2.09,2.47v20.22a2.52,2.52,0,0,1-2.5,2.5Zm89.38-89.38H315.16a2.51,2.51,0,0,1-2.47-2.09,57.43,57.43,0,0,0-47.1-47.1,2.51,2.51,0,0,1-2.09-2.47V176.62a2.51,2.51,0,0,1,2.81-2.48,82.39,82.39,0,0,1,14.82,3.27,2.5,2.5,0,0,1-1.52,4.77,75.51,75.51,0,0,0-11.11-2.67v15.25a62.49,62.49,0,0,1,48.74,48.74h15.25a77.78,77.78,0,0,0-22.73-43.27,2.5,2.5,0,0,1,3.47-3.6,82.74,82.74,0,0,1,24.63,49.06,2.51,2.51,0,0,1-2.48,2.81Zm-138.54,0H176.62a2.51,2.51,0,0,1-2.48-2.81,82.37,82.37,0,0,1,71.55-71.55,2.51,2.51,0,0,1,2.81,2.48v20.22a2.51,2.51,0,0,1-2.09,2.47,57.43,57.43,0,0,0-47.1,47.1A2.51,2.51,0,0,1,196.84,248.5Zm-17.34-5h15.26a62.49,62.49,0,0,1,48.74-48.74V179.5A77.39,77.39,0,0,0,179.5,243.5Z"/><path class="cls-1" d="M266,297.24a2.49,2.49,0,0,1-2.5-2.5V273.31a2.5,2.5,0,0,1,1.25-2.16,17.69,17.69,0,0,0,6.4-6.4,2.5,2.5,0,0,1,2.16-1.25h21.43a2.5,2.5,0,0,1,2.42,3.13,42.56,42.56,0,0,1-30.53,30.53A2.72,2.72,0,0,1,266,297.24Zm2.5-22.54v16.66a37.53,37.53,0,0,0,22.86-22.86H274.7A22.59,22.59,0,0,1,268.5,274.7ZM246,297.24a2.72,2.72,0,0,1-.63-.08,42.56,42.56,0,0,1-30.53-30.53,2.5,2.5,0,0,1,2.42-3.13h21.43a2.5,2.5,0,0,1,2.16,1.25,17.69,17.69,0,0,0,6.4,6.4,2.5,2.5,0,0,1,1.25,2.16v21.43a2.49,2.49,0,0,1-2.5,2.5ZM220.64,268.5a37.53,37.53,0,0,0,22.86,22.86V274.7a22.59,22.59,0,0,1-6.2-6.2Zm74.1-20H273.31a2.5,2.5,0,0,1-2.16-1.25,17.69,17.69,0,0,0-6.4-6.4,2.5,2.5,0,0,1-1.25-2.16V217.26a2.5,2.5,0,0,1,3.13-2.42,42.56,42.56,0,0,1,30.53,30.53,2.5,2.5,0,0,1-2.42,3.13Zm-20-5h16.66a37.53,37.53,0,0,0-22.86-22.86V237.3A22.59,22.59,0,0,1,274.7,243.5Zm-36,5H217.26a2.5,2.5,0,0,1-2.42-3.13,42.56,42.56,0,0,1,30.53-30.53,2.5,2.5,0,0,1,3.13,2.42v21.43a2.5,2.5,0,0,1-1.25,2.16,17.69,17.69,0,0,0-6.4,6.4A2.5,2.5,0,0,1,238.69,248.5Zm-18.05-5H237.3a22.59,22.59,0,0,1,6.2-6.2V220.64A37.53,37.53,0,0,0,220.64,243.5Z"/></g></svg>