<svg xmlns="http://www.w3.org/2000/svg" viewBox="0 0 512 512"><defs><style>.cls-1{fill:#211915;}</style></defs><title>50-Computer-hardware-Line-Icons</title><g id="_08" data-name="08"><path class="cls-1" d="M378.07,348.5a2.49,2.49,0,0,1-1.77-.73,2.52,2.52,0,0,1,0-3.54l30.56-30.56V198.33l-93.19-93.19H198.33L172,131.44a2.5,2.5,0,1,1-3.53-3.53l27-27a2.51,2.51,0,0,1,1.77-.73H314.71a2.51,2.51,0,0,1,1.77.73l94.65,94.65a2.51,2.51,0,0,1,.73,1.77V314.71a2.51,2.51,0,0,1-.73,1.77l-31.29,31.29A2.49,2.49,0,0,1,378.07,348.5Z"/><path class="cls-1" d="M314.71,411.86H197.29a2.51,2.51,0,0,1-1.77-.73l-94.65-94.65a2.51,2.51,0,0,1-.73-1.77V197.29a2.51,2.51,0,0,1,.73-1.77l25.77-25.77a2.5,2.5,0,1,1,3.54,3.54l-25,25V313.67l93.19,93.19H313.67L333,387.53a2.5,2.5,0,0,1,3.53,3.53l-20.06,20.07A2.51,2.51,0,0,1,314.71,411.86Z"/><path class="cls-1" d="M301.82,378.19H210.18a2.51,2.51,0,0,1-1.77-.73l-73.87-73.87a2.51,2.51,0,0,1-.73-1.77V210.18a2.51,2.51,0,0,1,.73-1.77l73.87-73.87a2.51,2.51,0,0,1,1.77-.73h91.64a2.51,2.51,0,0,1,1.77.73l18,18a2.5,2.5,0,1,1-3.53,3.54l-17.29-17.29H211.22l-72.41,72.41v89.56l72.41,72.41h89.57l72.4-72.41V211.22l-21.87-21.88a2.5,2.5,0,0,1,3.53-3.53l22.61,22.6a2.51,2.51,0,0,1,.73,1.77v91.64a2.51,2.51,0,0,1-.73,1.77l-73.87,73.87A2.51,2.51,0,0,1,301.82,378.19Z"/><path class="cls-1" d="M217.29,105.14a2.5,2.5,0,0,1-2.5-2.5V50.93a1.87,1.87,0,0,0-1.86-1.87H201.65a1.87,1.87,0,0,0-1.86,1.87v51.71a2.5,2.5,0,1,1-5,0V50.93a6.87,6.87,0,0,1,6.86-6.87h11.28a6.87,6.87,0,0,1,6.86,6.87v51.71A2.5,2.5,0,0,1,217.29,105.14Z"/><path class="cls-1" d="M294.71,105.14a2.5,2.5,0,0,1-2.5-2.5V50.93a6.87,6.87,0,0,1,6.86-6.87h11.28a6.87,6.87,0,0,1,6.86,6.87v9.94a2.5,2.5,0,1,1-5,0V50.93a1.87,1.87,0,0,0-1.86-1.87H299.07a1.87,1.87,0,0,0-1.86,1.87v51.71A2.5,2.5,0,0,1,294.71,105.14Z"/><path class="cls-1" d="M314.71,105.14a2.5,2.5,0,0,1-2.5-2.5V84a2.5,2.5,0,1,1,5,0v18.63A2.5,2.5,0,0,1,314.71,105.14Z"/><path class="cls-1" d="M249.76,105.14a2.5,2.5,0,0,1-2.5-2.5V50.93a1.87,1.87,0,0,0-1.86-1.87H234.13a1.87,1.87,0,0,0-1.87,1.87v51.71a2.5,2.5,0,0,1-5,0V50.93a6.88,6.88,0,0,1,6.87-6.87H245.4a6.87,6.87,0,0,1,6.86,6.87v51.71A2.5,2.5,0,0,1,249.76,105.14Z"/><path class="cls-1" d="M282.24,105.14a2.5,2.5,0,0,1-2.5-2.5V50.93a1.87,1.87,0,0,0-1.87-1.87H266.6a1.87,1.87,0,0,0-1.86,1.87v51.71a2.5,2.5,0,0,1-5,0V50.93a6.87,6.87,0,0,1,6.86-6.87h11.27a6.88,6.88,0,0,1,6.87,6.87v51.71A2.5,2.5,0,0,1,282.24,105.14Z"/><path class="cls-1" d="M212.93,467.94H201.65a6.87,6.87,0,0,1-6.86-6.87v-7.85a2.5,2.5,0,0,1,5,0v7.85a1.87,1.87,0,0,0,1.86,1.87h11.28a1.87,1.87,0,0,0,1.86-1.87V409.36a2.5,2.5,0,0,1,5,0v51.71A6.87,6.87,0,0,1,212.93,467.94Z"/><path class="cls-1" d="M197.29,428.1a2.49,2.49,0,0,1-2.5-2.5V409.36a2.5,2.5,0,0,1,5,0V425.6A2.49,2.49,0,0,1,197.29,428.1Z"/><path class="cls-1" d="M310.35,467.94H299.07a6.87,6.87,0,0,1-6.86-6.87V409.36a2.5,2.5,0,0,1,5,0v51.71a1.87,1.87,0,0,0,1.86,1.87h11.28a1.87,1.87,0,0,0,1.86-1.87V409.36a2.5,2.5,0,0,1,5,0v51.71A6.87,6.87,0,0,1,310.35,467.94Z"/><path class="cls-1" d="M245.4,467.94H234.13a6.88,6.88,0,0,1-6.87-6.87V409.36a2.5,2.5,0,0,1,5,0v51.71a1.87,1.87,0,0,0,1.87,1.87H245.4a1.87,1.87,0,0,0,1.86-1.87V409.36a2.5,2.5,0,0,1,5,0v51.71A6.87,6.87,0,0,1,245.4,467.94Z"/><path class="cls-1" d="M277.87,467.94H266.6a6.87,6.87,0,0,1-6.86-6.87V409.36a2.5,2.5,0,0,1,5,0v51.71a1.87,1.87,0,0,0,1.86,1.87h11.27a1.87,1.87,0,0,0,1.87-1.87V409.36a2.5,2.5,0,0,1,5,0v51.71A6.88,6.88,0,0,1,277.87,467.94Z"/><path class="cls-1" d="M102.64,317.21H50.93a6.87,6.87,0,0,1-6.87-6.86V299.07a6.87,6.87,0,0,1,6.87-6.86h51.71a2.5,2.5,0,0,1,0,5H50.93a1.87,1.87,0,0,0-1.87,1.86v11.28a1.87,1.87,0,0,0,1.87,1.86h51.71a2.5,2.5,0,0,1,0,5Z"/><path class="cls-1" d="M102.64,219.79H50.93a6.87,6.87,0,0,1-6.87-6.86V201.65a6.87,6.87,0,0,1,6.87-6.86h6.64a2.5,2.5,0,0,1,0,5H50.93a1.87,1.87,0,0,0-1.87,1.86v11.28a1.87,1.87,0,0,0,1.87,1.86h51.71a2.5,2.5,0,1,1,0,5Z"/><path class="cls-1" d="M102.64,199.79H84.15a2.5,2.5,0,0,1,0-5h18.49a2.5,2.5,0,1,1,0,5Z"/><path class="cls-1" d="M102.64,284.74H50.93a6.88,6.88,0,0,1-6.87-6.87V266.6a6.87,6.87,0,0,1,6.87-6.86h51.71a2.5,2.5,0,0,1,0,5H50.93a1.87,1.87,0,0,0-1.87,1.86v11.27a1.87,1.87,0,0,0,1.87,1.87h51.71a2.5,2.5,0,0,1,0,5Z"/><path class="cls-1" d="M102.64,252.26H50.93a6.87,6.87,0,0,1-6.87-6.86V234.13a6.88,6.88,0,0,1,6.87-6.87h51.71a2.5,2.5,0,0,1,0,5H50.93a1.87,1.87,0,0,0-1.87,1.87V245.4a1.87,1.87,0,0,0,1.87,1.86h51.71a2.5,2.5,0,0,1,0,5Z"/><path class="cls-1" d="M461.07,317.21H450.28a2.5,2.5,0,0,1,0-5h10.79a1.87,1.87,0,0,0,1.87-1.86V299.07a1.87,1.87,0,0,0-1.87-1.86H409.36a2.5,2.5,0,0,1,0-5h51.71a6.87,6.87,0,0,1,6.87,6.86v11.28A6.87,6.87,0,0,1,461.07,317.21Z"/><path class="cls-1" d="M425.18,317.21H409.36a2.5,2.5,0,0,1,0-5h15.82a2.5,2.5,0,0,1,0,5Z"/><path class="cls-1" d="M461.07,219.79H409.36a2.5,2.5,0,0,1,0-5h51.71a1.87,1.87,0,0,0,1.87-1.86V201.65a1.87,1.87,0,0,0-1.87-1.86H409.36a2.5,2.5,0,0,1,0-5h51.71a6.87,6.87,0,0,1,6.87,6.86v11.28A6.87,6.87,0,0,1,461.07,219.79Z"/><path class="cls-1" d="M461.07,284.74H409.36a2.5,2.5,0,0,1,0-5h51.71a1.87,1.87,0,0,0,1.87-1.87V266.6a1.87,1.87,0,0,0-1.87-1.86H409.36a2.5,2.5,0,0,1,0-5h51.71a6.87,6.87,0,0,1,6.87,6.86v11.27A6.88,6.88,0,0,1,461.07,284.74Z"/><path class="cls-1" d="M461.07,252.26H409.36a2.5,2.5,0,0,1,0-5h51.71a1.87,1.87,0,0,0,1.87-1.86V234.13a1.87,1.87,0,0,0-1.87-1.87H409.36a2.5,2.5,0,0,1,0-5h51.71a6.88,6.88,0,0,1,6.87,6.87V245.4A6.87,6.87,0,0,1,461.07,252.26Z"/><path class="cls-1" d="M308.77,329.11H203.23a20.36,20.36,0,0,1-20.34-20.34V291a2.5,2.5,0,0,1,5,0v17.77a15.36,15.36,0,0,0,15.34,15.34H308.77a15.36,15.36,0,0,0,15.34-15.34V203.23a15.36,15.36,0,0,0-15.34-15.34H203.23a15.36,15.36,0,0,0-15.34,15.34V246a2.5,2.5,0,0,1-5,0V203.23a20.36,20.36,0,0,1,20.34-20.34H308.77a20.36,20.36,0,0,1,20.34,20.34V308.77A20.36,20.36,0,0,1,308.77,329.11Z"/><path class="cls-1" d="M281.45,223.5h-50.9a7.5,7.5,0,0,1,0-15h50.9a7.5,7.5,0,0,1,0,15Zm-50.9-10a2.5,2.5,0,0,0,0,5h50.9a2.5,2.5,0,0,0,0-5Z"/><path class="cls-1" d="M299.71,248.5H212.29a7.5,7.5,0,1,1,0-15h35.8a2.5,2.5,0,1,1,0,5h-35.8a2.5,2.5,0,1,0,0,5h87.42a2.5,2.5,0,1,0,0-5h-19a2.5,2.5,0,0,1,0-5h19a7.5,7.5,0,1,1,0,15Z"/><path class="cls-1" d="M289.71,273.5H222.29a7.5,7.5,0,1,1,0-15h67.42a7.5,7.5,0,1,1,0,15Zm-67.42-10a2.5,2.5,0,1,0,0,5h67.42a2.5,2.5,0,1,0,0-5Z"/><path class="cls-1" d="M299.71,298.5H212.29a7.5,7.5,0,1,1,0-15h87.42a7.5,7.5,0,1,1,0,15Zm-87.42-10a2.5,2.5,0,1,0,0,5h87.42a2.5,2.5,0,1,0,0-5Z"/></g></svg>