<svg xmlns="http://www.w3.org/2000/svg" viewBox="0 0 512 512"><defs><style>.cls-1{fill:#211915;}</style></defs><title>50-Computer-hardware-Line-Icons</title><g id="_29" data-name="29"><path class="cls-1" d="M252.07,161.4H160.22a2.5,2.5,0,0,1,0-5h91.85a8.84,8.84,0,0,0,5.47-1.9l36.66-28.88a13.86,13.86,0,0,1,8.56-3H435.65a13.85,13.85,0,0,1,13.83,13.83v18.67a2.5,2.5,0,0,1-5,0V136.48a8.84,8.84,0,0,0-8.83-8.83H302.76a8.82,8.82,0,0,0-5.47,1.9l-36.66,28.88A13.86,13.86,0,0,1,252.07,161.4Z"/><path class="cls-1" d="M435.65,364H234.18a2.5,2.5,0,0,1,0-5H435.65a8.84,8.84,0,0,0,8.83-8.83V217.91a2.5,2.5,0,1,1,5,0V350.14A13.85,13.85,0,0,1,435.65,364Z"/><path class="cls-1" d="M160.22,364H76.35a13.85,13.85,0,0,1-13.83-13.83V170.23A13.85,13.85,0,0,1,76.35,156.4h18a2.5,2.5,0,0,1,0,5h-18a8.84,8.84,0,0,0-8.83,8.83V350.14A8.84,8.84,0,0,0,76.35,359h83.87a2.5,2.5,0,1,1,0,5Z"/><path class="cls-1" d="M85,191.4a12.5,12.5,0,1,1,12.5-12.5A12.52,12.52,0,0,1,85,191.4Zm0-20a7.5,7.5,0,1,0,7.5,7.5A7.5,7.5,0,0,0,85,171.4Z"/><path class="cls-1" d="M85,354a12.5,12.5,0,1,1,12.5-12.5A12.52,12.52,0,0,1,85,354Zm0-20a7.5,7.5,0,1,0,7.5,7.5A7.5,7.5,0,0,0,85,334Z"/><path class="cls-1" d="M427,157.65a12.5,12.5,0,1,1,12.5-12.5A12.52,12.52,0,0,1,427,157.65Zm0-20a7.5,7.5,0,1,0,7.5,7.5A7.5,7.5,0,0,0,427,137.65Z"/><path class="cls-1" d="M308.24,157.65a12.5,12.5,0,1,1,12.5-12.5A12.52,12.52,0,0,1,308.24,157.65Zm0-20a7.5,7.5,0,1,0,7.5,7.5A7.51,7.51,0,0,0,308.24,137.65Z"/><path class="cls-1" d="M427,354a12.5,12.5,0,1,1,12.5-12.5A12.52,12.52,0,0,1,427,354Zm0-20a7.5,7.5,0,1,0,7.5,7.5A7.5,7.5,0,0,0,427,334Z"/><path class="cls-1" d="M165.6,344a83.8,83.8,0,1,1,34.17-160.34,2.5,2.5,0,1,1-2,4.56,78.81,78.81,0,1,0,35.19,31,2.5,2.5,0,0,1,4.27-2.6A83.82,83.82,0,0,1,165.6,344Zm0-10a73.8,73.8,0,1,1,73.8-73.8A73.89,73.89,0,0,1,165.6,334Zm0-142.6a68.8,68.8,0,1,0,68.8,68.8A68.87,68.87,0,0,0,165.6,191.39Z"/><path class="cls-1" d="M179.73,241.47a2.51,2.51,0,0,1-2.44-2c-.13-.62-3.33-15.27-2-24.19.7-4.81,4.67-9,11.49-12.19a60.6,60.6,0,0,0-21.14-3.78c-1.13,0-2.3,0-3.49.1a60.36,60.36,0,0,0-6.06.64,1.39,1.39,0,0,0-1.17,1.25,2.5,2.5,0,1,1-5-.46,6.38,6.38,0,0,1,5.36-5.73c2.15-.34,4.35-.57,6.56-.7,1.28-.07,2.55-.1,3.77-.1a65.36,65.36,0,0,1,23.54,4.35,4.71,4.71,0,0,1,.25,8.72c-3.17,1.41-8.58,4.4-9.19,8.62-1.16,8,2,22.25,2,22.39a2.51,2.51,0,0,1-2.45,3Z"/><path class="cls-1" d="M158.93,238.08a2.51,2.51,0,0,1-2.35-1.64,133.06,133.06,0,0,1-4.59-15.1,2.5,2.5,0,0,1,4.87-1.14,129.53,129.53,0,0,0,4.41,14.52,2.49,2.49,0,0,1-1.49,3.21A2.54,2.54,0,0,1,158.93,238.08Z"/><path class="cls-1" d="M106.52,275.89h-.23a6.38,6.38,0,0,1-5.73-5.37,63.39,63.39,0,0,1-.7-6.55c-.07-1.33-.11-2.56-.11-3.77a65.46,65.46,0,0,1,4.35-23.55,4.72,4.72,0,0,1,8.73-.24c1.41,3.16,4.4,8.57,8.62,9.18,8,1.17,22.25-1.94,22.39-2a2.5,2.5,0,0,1,1.08,4.88c-.62.14-15.27,3.33-24.19,2-4.82-.7-9-4.67-12.19-11.49a60.39,60.39,0,0,0-3.79,21.15c0,1.12,0,2.26.1,3.49a59.54,59.54,0,0,0,.65,6.05,1.39,1.39,0,0,0,1.25,1.17,2.5,2.5,0,0,1-.23,5Z"/><path class="cls-1" d="M127.65,273.5a2.5,2.5,0,0,1-.6-4.93,132.62,132.62,0,0,0,13.08-4.06,2.5,2.5,0,0,1,1.71,4.7,136.48,136.48,0,0,1-13.58,4.21A2.13,2.13,0,0,1,127.65,273.5Z"/><path class="cls-1" d="M165.59,326a65.36,65.36,0,0,1-23.54-4.35,4.71,4.71,0,0,1-.25-8.72c3.17-1.41,8.58-4.4,9.19-8.62,1.16-8-2-22.25-2-22.39a2.5,2.5,0,1,1,4.89-1.08c.13.62,3.33,15.26,2,24.18-.7,4.82-4.67,9-11.49,12.2A60.6,60.6,0,0,0,165.59,321c1.12,0,2.29,0,3.49-.1a60.36,60.36,0,0,0,6.06-.64A1.38,1.38,0,0,0,176.3,319a2.5,2.5,0,0,1,5,.46,6.38,6.38,0,0,1-5.36,5.73,64.48,64.48,0,0,1-6.56.69C168.07,326,166.8,326,165.59,326Z"/><path class="cls-1" d="M176.78,302.2a2.49,2.49,0,0,1-2.43-1.93,130.2,130.2,0,0,0-4.43-14.61,2.5,2.5,0,1,1,4.69-1.72,133.73,133.73,0,0,1,4.61,15.19,2.51,2.51,0,0,1-1.86,3A2.86,2.86,0,0,1,176.78,302.2Z"/><path class="cls-1" d="M222.66,286.78a4.68,4.68,0,0,1-4.3-2.8c-1.41-3.16-4.4-8.57-8.62-9.19-8-1.16-22.25,1.95-22.39,2a2.5,2.5,0,1,1-1.08-4.88c.62-.14,15.27-3.33,24.19-2,4.82.7,9,4.67,12.19,11.49a60.66,60.66,0,0,0,3.79-21.15c0-1.12,0-2.3-.1-3.49-.12-2-.34-4.08-.65-6a1.39,1.39,0,0,0-1.25-1.17,2.5,2.5,0,0,1,.46-5,6.38,6.38,0,0,1,5.73,5.37,63.39,63.39,0,0,1,.7,6.55c.07,1.29.11,2.55.11,3.77a65.67,65.67,0,0,1-4.35,23.55,4.73,4.73,0,0,1-4.3,3Z"/><path class="cls-1" d="M190.2,256a2.5,2.5,0,0,1-.85-4.85c4.4-1.61,8.69-2.95,12.73-4a2.5,2.5,0,0,1,1.25,4.84c-3.88,1-8,2.31-12.27,3.86A2.55,2.55,0,0,1,190.2,256Z"/><path class="cls-1" d="M165.61,288.18a28,28,0,0,1-28-28,27.33,27.33,0,0,1,.54-5.46,28,28,0,1,1,27.46,33.45Zm0-51a23,23,0,1,0,23,23,22.66,22.66,0,0,0-.43-4.47A23,23,0,0,0,165.61,237.2Z"/><path class="cls-1" d="M346.4,344a83.74,83.74,0,1,1,74.33-45.08,2.5,2.5,0,1,1-4.43-2.31A78.8,78.8,0,1,0,346.4,339a78.07,78.07,0,0,0,35.51-8.43,2.5,2.5,0,0,1,2.25,4.46A83,83,0,0,1,346.4,344Zm0-10a73.8,73.8,0,1,1,73.8-73.8A73.89,73.89,0,0,1,346.4,334Zm0-142.6a68.8,68.8,0,1,0,68.8,68.8A68.87,68.87,0,0,0,346.4,191.39Z"/><path class="cls-1" d="M360.54,241.47a2.5,2.5,0,0,1-2.44-2c-.14-.62-3.34-15.27-2.05-24.19.7-4.81,4.67-9,11.5-12.19a60.61,60.61,0,0,0-21.15-3.78c-1.12,0-2.3,0-3.49.1a60.16,60.16,0,0,0-6.05.64,1.39,1.39,0,0,0-1.17,1.25,2.5,2.5,0,0,1-5-.46,6.39,6.39,0,0,1,5.37-5.73c2.14-.34,4.35-.57,6.55-.7,1.29-.07,2.55-.1,3.77-.1A65.46,65.46,0,0,1,370,198.7a4.72,4.72,0,0,1,.24,8.72c-3.17,1.41-8.57,4.4-9.19,8.62-1.16,8,1.95,22.25,2,22.39a2.49,2.49,0,0,1-1.9,3A2.55,2.55,0,0,1,360.54,241.47Z"/><path class="cls-1" d="M339.73,238.08a2.51,2.51,0,0,1-2.35-1.64A135.12,135.12,0,0,1,333,222a2.5,2.5,0,0,1,4.86-1.17,129.55,129.55,0,0,0,4.27,13.91,2.51,2.51,0,0,1-1.49,3.21A2.64,2.64,0,0,1,339.73,238.08Z"/><path class="cls-1" d="M287.32,275.89h-.23a6.39,6.39,0,0,1-5.73-5.37c-.34-2.13-.57-4.34-.7-6.55-.07-1.3-.11-2.57-.11-3.77a65.67,65.67,0,0,1,4.35-23.55,4.74,4.74,0,0,1,4.3-3h.13a4.69,4.69,0,0,1,4.3,2.81c1.41,3.16,4.4,8.57,8.62,9.18,8,1.17,22.25-1.94,22.39-2a2.5,2.5,0,1,1,1.08,4.88c-.62.14-15.26,3.33-24.19,2-4.81-.7-9-4.67-12.19-11.49a60.62,60.62,0,0,0-3.79,21.15c0,1.11,0,2.28.11,3.49a59.85,59.85,0,0,0,.64,6.05,1.39,1.39,0,0,0,1.25,1.17,2.5,2.5,0,0,1-.23,5Z"/><path class="cls-1" d="M308.24,273.55a2.5,2.5,0,0,1-.6-4.92,134.11,134.11,0,0,0,13.29-4.12,2.5,2.5,0,1,1,1.72,4.7,138.94,138.94,0,0,1-13.8,4.27A2.6,2.6,0,0,1,308.24,273.55Z"/><path class="cls-1" d="M346.39,326a65.44,65.44,0,0,1-23.54-4.35,4.72,4.72,0,0,1-.25-8.72c3.17-1.41,8.58-4.4,9.19-8.62,1.17-8-1.94-22.25-2-22.39a2.5,2.5,0,1,1,4.88-1.08c.14.62,3.33,15.26,2,24.18-.7,4.82-4.67,9-11.49,12.2A60.6,60.6,0,0,0,346.39,321c1.12,0,2.29,0,3.5-.1a60.47,60.47,0,0,0,6.05-.64,1.4,1.4,0,0,0,1.17-1.25,2.5,2.5,0,1,1,5,.46,6.39,6.39,0,0,1-5.37,5.73,64.28,64.28,0,0,1-6.55.69C348.87,326,347.6,326,346.39,326Z"/><path class="cls-1" d="M357.65,302.48a2.5,2.5,0,0,1-2.43-1.94,127.91,127.91,0,0,0-4.5-14.88,2.5,2.5,0,1,1,4.7-1.72,134.65,134.65,0,0,1,4.67,15.47,2.51,2.51,0,0,1-1.87,3A2.76,2.76,0,0,1,357.65,302.48Z"/><path class="cls-1" d="M403.47,286.78a4.71,4.71,0,0,1-4.31-2.8c-1.4-3.16-4.4-8.57-8.62-9.19-8-1.16-22.24,1.95-22.39,2a2.5,2.5,0,1,1-1.07-4.88c.62-.14,15.26-3.33,24.18-2,4.82.7,9,4.67,12.19,11.49a60.43,60.43,0,0,0,3.79-21.15c0-1.12,0-2.3-.1-3.49a60.16,60.16,0,0,0-.64-6,1.4,1.4,0,0,0-1.25-1.17,2.5,2.5,0,1,1,.46-5,6.4,6.4,0,0,1,5.73,5.37,64.28,64.28,0,0,1,.69,6.55c.08,1.29.11,2.55.11,3.77a65.46,65.46,0,0,1-4.35,23.55,4.71,4.71,0,0,1-4.29,3Z"/><path class="cls-1" d="M371,256a2.5,2.5,0,0,1-.86-4.85,133.63,133.63,0,0,1,15.6-4.7,2.5,2.5,0,0,1,1.13,4.87,128.2,128.2,0,0,0-15,4.53A2.54,2.54,0,0,1,371,256Z"/><path class="cls-1" d="M346.41,288.18a28,28,0,1,1,27.44-33.44,27.15,27.15,0,0,1,.54,5.45A28,28,0,0,1,346.41,288.18Zm0-51a23,23,0,0,0-22.55,18.51,22.1,22.1,0,0,0-.44,4.48,23,23,0,1,0,46,0,22.66,22.66,0,0,0-.44-4.47A23,23,0,0,0,346.41,237.2Z"/></g></svg>