<svg xmlns="http://www.w3.org/2000/svg" viewBox="0 0 512 512"><defs><style>.cls-1{fill:#211915;}</style></defs><title>50-Computer-hardware-Line-Icons</title><g id="_25" data-name="25"><path class="cls-1" d="M463.19,246.23a2.5,2.5,0,0,1-2.5-2.5v-63H218.81a2.5,2.5,0,0,1,0-5H463.19a2.5,2.5,0,0,1,2.5,2.5v65.46A2.5,2.5,0,0,1,463.19,246.23Z"/><path class="cls-1" d="M463.19,326.23H98.81a2.5,2.5,0,0,1-2.5-2.5V178.27a2.5,2.5,0,0,1,2.5-2.5h40a2.5,2.5,0,0,1,0,5h-37.5V321.23H460.69v-17.5a2.5,2.5,0,0,1,5,0v20A2.5,2.5,0,0,1,463.19,326.23Z"/><path class="cls-1" d="M98.81,326.23H51.75a8.5,8.5,0,0,1-8.5-8.49v-8a8.5,8.5,0,0,1,8.5-8.49H98.81a2.5,2.5,0,0,1,0,5H51.75a3.5,3.5,0,0,0-3.5,3.49v8a3.5,3.5,0,0,0,3.5,3.49H98.81a2.5,2.5,0,0,1,0,5Z"/><path class="cls-1" d="M98.81,286.23H51.75a8.5,8.5,0,0,1-8.5-8.49v-8a8.5,8.5,0,0,1,8.5-8.49H98.81a2.5,2.5,0,0,1,0,5H51.75a3.5,3.5,0,0,0-3.5,3.49v8a3.5,3.5,0,0,0,3.5,3.49H98.81a2.5,2.5,0,0,1,0,5Z"/><path class="cls-1" d="M98.81,246.23H51.75a8.5,8.5,0,0,1-8.5-8.49v-8a8.5,8.5,0,0,1,8.5-8.49H98.81a2.5,2.5,0,0,1,0,5H51.75a3.5,3.5,0,0,0-3.5,3.49v8a3.5,3.5,0,0,0,3.5,3.49H98.81a2.5,2.5,0,0,1,0,5Z"/><path class="cls-1" d="M272.82,360.09h-128a8.5,8.5,0,0,1-8.49-8.49V323.73a2.5,2.5,0,0,1,2.5-2.5h140a2.5,2.5,0,0,1,2.5,2.5V351.6A8.5,8.5,0,0,1,272.82,360.09ZM141.31,326.23V351.6a3.5,3.5,0,0,0,3.49,3.49h128a3.49,3.49,0,0,0,3.49-3.49V326.23Z"/><path class="cls-1" d="M158.81,360.09a2.5,2.5,0,0,1-2.5-2.5V323.73a2.5,2.5,0,0,1,5,0v33.86A2.5,2.5,0,0,1,158.81,360.09Z"/><path class="cls-1" d="M198.81,360.09a2.5,2.5,0,0,1-2.5-2.5V323.73a2.5,2.5,0,0,1,5,0v33.86A2.5,2.5,0,0,1,198.81,360.09Z"/><path class="cls-1" d="M178.81,360.09a2.5,2.5,0,0,1-2.5-2.5V323.73a2.5,2.5,0,0,1,5,0v33.86A2.5,2.5,0,0,1,178.81,360.09Z"/><path class="cls-1" d="M218.81,360.09a2.5,2.5,0,0,1-2.5-2.5V323.73a2.5,2.5,0,0,1,5,0v33.86A2.5,2.5,0,0,1,218.81,360.09Z"/><path class="cls-1" d="M238.81,360.09a2.5,2.5,0,0,1-2.5-2.5V323.73a2.5,2.5,0,0,1,5,0v33.86A2.5,2.5,0,0,1,238.81,360.09Z"/><path class="cls-1" d="M258.81,360.09a2.5,2.5,0,0,1-2.5-2.5V323.73a2.5,2.5,0,0,1,5,0v33.86A2.5,2.5,0,0,1,258.81,360.09Z"/><path class="cls-1" d="M432.59,306.23h-141a13.12,13.12,0,0,1-13.1-13.1V208.87a13.12,13.12,0,0,1,13.1-13.1H341a2.5,2.5,0,0,1,0,5H291.6a8.1,8.1,0,0,0-8.1,8.1v84.26a8.1,8.1,0,0,0,8.1,8.1h141a8.11,8.11,0,0,0,8.1-8.1V208.87a8.11,8.11,0,0,0-8.1-8.1H412a2.5,2.5,0,0,1,0-5h20.56a13.12,13.12,0,0,1,13.1,13.1v84.26A13.12,13.12,0,0,1,432.59,306.23Z"/><path class="cls-1" d="M399.24,294.29a7.86,7.86,0,0,1-2-.26,7.52,7.52,0,0,1-5.25-9.22,130.67,130.67,0,0,0,0-67.62,7.5,7.5,0,1,1,14.46-4,145.44,145.44,0,0,1,0,75.54A7.5,7.5,0,0,1,399.24,294.29Zm0-81.58a2.5,2.5,0,0,0-2.41,3.16,135.59,135.59,0,0,1,0,70.26,2.5,2.5,0,0,0,4.82,1.32,140.51,140.51,0,0,0,0-72.9A2.5,2.5,0,0,0,399.24,212.71Z"/><path class="cls-1" d="M375,282.43a7.52,7.52,0,0,1-7.08-10,66.19,66.19,0,0,0,0-42.86,7.51,7.51,0,0,1,4.58-9.57,7.49,7.49,0,0,1,9.56,4.59,81.14,81.14,0,0,1,0,52.83A7.51,7.51,0,0,1,375,282.43Zm0-57.85a2.37,2.37,0,0,0-.83.14,2.49,2.49,0,0,0-1.53,3.19,71.17,71.17,0,0,1,0,46.18,2.51,2.51,0,0,0,1.53,3.19,2.54,2.54,0,0,0,3.19-1.53,76.23,76.23,0,0,0,0-49.5,2.5,2.5,0,0,0-1.28-1.43A2.54,2.54,0,0,0,375,224.58Z"/><path class="cls-1" d="M344.36,279.63a10.26,10.26,0,0,1-4.33-1l-26.48-12.19a13.22,13.22,0,0,1-7.67-12v-7a13.22,13.22,0,0,1,7.67-12L340,223.33h0a10.32,10.32,0,0,1,14.38,7,92,92,0,0,1,2,20.66,92,92,0,0,1-2,20.66,10.26,10.26,0,0,1-5.51,6.91A10.38,10.38,0,0,1,344.36,279.63Zm-2.24-51.76-26.48,12.19a8.21,8.21,0,0,0-4.76,7.44v7a8.21,8.21,0,0,0,4.76,7.44l26.48,12.19a5.32,5.32,0,0,0,7.42-3.61A86.54,86.54,0,0,0,351.46,251a86.54,86.54,0,0,0-1.92-19.52,5.32,5.32,0,0,0-7.42-3.61Z"/><path class="cls-1" d="M228.21,306.23h-18.8a13.12,13.12,0,0,1-13.1-13.1V208.87a13.12,13.12,0,0,1,13.1-13.1h18.8a13.12,13.12,0,0,1,13.1,13.1v84.26A13.12,13.12,0,0,1,228.21,306.23Zm-18.8-105.46a8.11,8.11,0,0,0-8.1,8.1v84.26a8.11,8.11,0,0,0,8.1,8.1h18.8a8.1,8.1,0,0,0,8.1-8.1V208.87a8.1,8.1,0,0,0-8.1-8.1Z"/><path class="cls-1" d="M168.21,306.23h-18.8a13.12,13.12,0,0,1-13.1-13.1v-9.4a2.5,2.5,0,0,1,5,0v9.4a8.11,8.11,0,0,0,8.1,8.1h18.8a8.1,8.1,0,0,0,8.1-8.1V208.87a8.1,8.1,0,0,0-8.1-8.1h-18.8a8.11,8.11,0,0,0-8.1,8.1v34.86a2.5,2.5,0,0,1-5,0V208.87a13.12,13.12,0,0,1,13.1-13.1h18.8a13.12,13.12,0,0,1,13.1,13.1v84.26A13.12,13.12,0,0,1,168.21,306.23Z"/></g></svg>