<svg xmlns="http://www.w3.org/2000/svg" viewBox="0 0 512 512"><defs><style>.cls-1{fill:#211915;}</style></defs><title>50-Computer-hardware-Line-Icons</title><g id="_07" data-name="07"><path class="cls-1" d="M128.09,319.46a2.5,2.5,0,0,1-2.5-2.5V264.7a11.21,11.21,0,0,1,11.2-11.2H152.9a6.21,6.21,0,0,0,6.2-6.2V232.48a6.21,6.21,0,0,0-6.2-6.2H136.79a11.21,11.21,0,0,1-11.2-11.2V196a11.23,11.23,0,0,1,3.67-8.29L168.56,152a2.51,2.51,0,0,1,3.37,3.71l-39.31,35.7a6.22,6.22,0,0,0-2,4.59v19.05a6.21,6.21,0,0,0,6.2,6.2H152.9a11.21,11.21,0,0,1,11.2,11.2V247.3a11.21,11.21,0,0,1-11.2,11.2H136.79a6.21,6.21,0,0,0-6.2,6.2V317A2.5,2.5,0,0,1,128.09,319.46Z"/><path class="cls-1" d="M299.48,421.43H136.79a11.21,11.21,0,0,1-11.2-11.2V391.78a2.5,2.5,0,0,1,5,0v18.45a6.21,6.21,0,0,0,6.2,6.2H299.48a2.5,2.5,0,0,1,0,5Z"/><path class="cls-1" d="M375.21,421.43h-21a2.5,2.5,0,0,1,0-5h21a6.21,6.21,0,0,0,6.2-6.2V378.39a6.21,6.21,0,0,0-6.2-6.2H356.28a11.21,11.21,0,0,1-11.2-11.2V267.82a11.21,11.21,0,0,1,11.2-11.2h18.93a6.21,6.21,0,0,0,6.2-6.2V101.77a6.21,6.21,0,0,0-6.2-6.2H240.55a6.2,6.2,0,0,0-4.17,1.61L214.53,117a2.5,2.5,0,1,1-3.36-3.7L233,93.48a11.17,11.17,0,0,1,7.53-2.91H375.21a11.21,11.21,0,0,1,11.2,11.2V250.42a11.21,11.21,0,0,1-11.2,11.2H356.28a6.21,6.21,0,0,0-6.2,6.2V361a6.21,6.21,0,0,0,6.2,6.2h18.93a11.21,11.21,0,0,1,11.2,11.2v31.84A11.21,11.21,0,0,1,375.21,421.43Z"/><path class="cls-1" d="M376.25,208.52h-16.9a10.17,10.17,0,0,1-10.16-10.16V146.65a10.17,10.17,0,0,1,10.16-10.15h16.9a10.17,10.17,0,0,1,10.16,10.15v51.71A10.17,10.17,0,0,1,376.25,208.52Zm-16.9-67a5.16,5.16,0,0,0-5.16,5.15v51.71a5.17,5.17,0,0,0,5.16,5.16h16.9a5.17,5.17,0,0,0,5.16-5.16V146.65a5.16,5.16,0,0,0-5.16-5.15Z"/><path class="cls-1" d="M324,208.52H307.13A10.17,10.17,0,0,1,297,198.36V146.65a10.16,10.16,0,0,1,10.15-10.15H324a10.16,10.16,0,0,1,10.15,10.15v51.71A10.17,10.17,0,0,1,324,208.52Zm-16.91-67a5.16,5.16,0,0,0-5.15,5.15v51.71a5.16,5.16,0,0,0,5.15,5.16H324a5.16,5.16,0,0,0,5.15-5.16V146.65A5.16,5.16,0,0,0,324,141.5Z"/><path class="cls-1" d="M271.82,208.52h-16.9a10.17,10.17,0,0,1-10.16-10.16V146.65a10.17,10.17,0,0,1,10.16-10.15h16.9A10.17,10.17,0,0,1,282,146.65a2.5,2.5,0,0,1-5,0,5.16,5.16,0,0,0-5.16-5.15h-16.9a5.16,5.16,0,0,0-5.16,5.15v51.71a5.17,5.17,0,0,0,5.16,5.16h16.9a5.17,5.17,0,0,0,5.16-5.16V183.21a2.5,2.5,0,0,1,5,0v15.15A10.17,10.17,0,0,1,271.82,208.52Z"/><path class="cls-1" d="M289.07,372.19h-73a12.92,12.92,0,0,1-12.91-12.9V266.4a12.92,12.92,0,0,1,12.91-12.9h73A12.92,12.92,0,0,1,302,266.4v15.19a2.5,2.5,0,0,1-5,0V266.4a7.92,7.92,0,0,0-7.91-7.9h-73a7.92,7.92,0,0,0-7.91,7.9v92.89a7.92,7.92,0,0,0,7.91,7.9h73a7.92,7.92,0,0,0,7.91-7.9v-31a2.5,2.5,0,0,1,5,0v31A12.92,12.92,0,0,1,289.07,372.19Z"/></g></svg>