<svg xmlns="http://www.w3.org/2000/svg" viewBox="0 0 512 512"><defs><style>.cls-1{fill:#211915;}</style></defs><title>50-Computer-hardware-Line-Icons</title><g id="_36" data-name="36"><path class="cls-1" d="M361.21,440.21H150.79a21,21,0,0,1-21-21V238.33a2.5,2.5,0,0,1,5,0V419.18a16,16,0,0,0,16,16H361.21a16,16,0,0,0,16-16V387.71a2.5,2.5,0,0,1,5,0v31.47A21,21,0,0,1,361.21,440.21Z"/><path class="cls-1" d="M379.74,344.2a2.5,2.5,0,0,1-2.5-2.5V135.79a16,16,0,0,0-16-16H150.79a16,16,0,0,0-16,16v31.48a2.5,2.5,0,0,1-5,0V135.79a21,21,0,0,1,21-21H361.21a21,21,0,0,1,21,21V341.7A2.5,2.5,0,0,1,379.74,344.2Z"/><path class="cls-1" d="M132.26,345.54a2.5,2.5,0,0,1-2.13-3.81A293.86,293.86,0,0,1,242.29,236.12a2.5,2.5,0,0,1,2.35,4.41A289,289,0,0,0,134.39,344.35,2.49,2.49,0,0,1,132.26,345.54Z"/><path class="cls-1" d="M319.75,213.1a2.5,2.5,0,0,1-.51-4.95,295,295,0,0,1,60.5-6.26,2.5,2.5,0,0,1,0,5,289.13,289.13,0,0,0-59.47,6.16A3.15,3.15,0,0,1,319.75,213.1Z"/><path class="cls-1" d="M226,353.41a43.45,43.45,0,0,1-12.47-1.76h0a28.33,28.33,0,0,1-9.82-4.9,7.39,7.39,0,0,1-1.26-10.37,5.39,5.39,0,0,1,4.33-2.18,8.87,8.87,0,0,1,4.61,1.49l.16.11a21.82,21.82,0,0,0,6.52,3.27,27.06,27.06,0,0,0,7.69,1c3.42,0,6-.55,7.68-1.65a4.23,4.23,0,0,0,2-3.92,2.69,2.69,0,0,0-1.68-2.55,36.87,36.87,0,0,0-9.13-2.93,60.26,60.26,0,0,1-12-3.72,18.82,18.82,0,0,1-7.7-6,15.85,15.85,0,0,1-2.73-9.45,17.5,17.5,0,0,1,3.29-10.42,21.21,21.21,0,0,1,8.9-7A30.6,30.6,0,0,1,226.7,290c8.27,0,15.14,2.26,20.43,6.73a8.52,8.52,0,0,1,2.1,2.48,7.15,7.15,0,0,1,.73,3.31A7,7,0,0,1,248.4,307a5.43,5.43,0,0,1-4.33,2.19,6.82,6.82,0,0,1-2.33-.39,14.31,14.31,0,0,1-2.23-1.07,1.88,1.88,0,0,1-.23-.16,24.93,24.93,0,0,0-5.83-3.27,19.44,19.44,0,0,0-6.75-1c-3.12,0-5.57.6-7.26,1.77a4.67,4.67,0,0,0-2.12,4.13,3.18,3.18,0,0,0,1.66,3c1.13.71,3.57,1.8,8.84,3A67.82,67.82,0,0,1,240,318.94a20,20,0,0,1,7.83,5.8,14.65,14.65,0,0,1,2.91,9.21,17.14,17.14,0,0,1-3.27,10.31,20.63,20.63,0,0,1-8.88,6.81A31.94,31.94,0,0,1,226,353.41ZM206.75,339.2c-.06,0-.18,0-.44.32a2.39,2.39,0,0,0,.39,3.24l.09.08a23.63,23.63,0,0,0,8.14,4h0a38.44,38.44,0,0,0,11,1.55,27.12,27.12,0,0,0,10.62-1.94,15.85,15.85,0,0,0,6.79-5.14,12.16,12.16,0,0,0,2.31-7.38,9.64,9.64,0,0,0-1.86-6.14,15,15,0,0,0-5.9-4.3,63.67,63.67,0,0,0-11.21-3.44c-4.85-1.1-8.25-2.28-10.4-3.63a8.17,8.17,0,0,1-4-7.21,9.64,9.64,0,0,1,4.27-8.23c2.54-1.77,5.94-2.67,10.11-2.67a24.41,24.41,0,0,1,8.51,1.33,30.12,30.12,0,0,1,6.9,3.83,8.79,8.79,0,0,0,1.29.64,2.2,2.2,0,0,0,.67.1c.05,0,.17,0,.43-.32a2.06,2.06,0,0,0,.46-1.38,2.24,2.24,0,0,0-.16-1,3.59,3.59,0,0,0-.9-1c-4.35-3.68-10.14-5.55-17.2-5.55a25.6,25.6,0,0,0-10.34,2,16.24,16.24,0,0,0-6.85,5.34,12.5,12.5,0,0,0-2.36,7.52,11,11,0,0,0,1.79,6.54,13.93,13.93,0,0,0,5.71,4.35,55.76,55.76,0,0,0,11,3.39c4.88,1.09,8.31,2.21,10.51,3.45a7.63,7.63,0,0,1,4.23,6.91,9.27,9.27,0,0,1-4.28,8.11c-2.54,1.66-6,2.46-10.42,2.46a32,32,0,0,1-9.12-1.23,27,27,0,0,1-7.93-3.94A4,4,0,0,0,206.75,339.2Z"/><path class="cls-1" d="M277.51,353.41A43.4,43.4,0,0,1,265,351.65h0a28.38,28.38,0,0,1-9.83-4.9A7.42,7.42,0,0,1,254,336.38a5.42,5.42,0,0,1,4.33-2.18,8.82,8.82,0,0,1,4.61,1.49l.17.11a21.7,21.7,0,0,0,6.52,3.27,27,27,0,0,0,7.69,1c3.41,0,6-.55,7.67-1.65a4.23,4.23,0,0,0,2-3.92,2.69,2.69,0,0,0-1.67-2.55,37,37,0,0,0-9.14-2.93,60.47,60.47,0,0,1-12-3.72,18.82,18.82,0,0,1-7.7-6,15.85,15.85,0,0,1-2.73-9.45,17.53,17.53,0,0,1,3.3-10.42,21.14,21.14,0,0,1,8.9-7A30.6,30.6,0,0,1,278.24,290c8.27,0,15.14,2.26,20.43,6.73a8.47,8.47,0,0,1,2.09,2.48,7.46,7.46,0,0,1-.83,7.82,5.42,5.42,0,0,1-4.33,2.19,6.86,6.86,0,0,1-2.33-.39,13.85,13.85,0,0,1-2.22-1.07l-.24-.16a25.08,25.08,0,0,0-5.82-3.27,19.52,19.52,0,0,0-6.75-1c-3.13,0-5.57.6-7.26,1.77a4.65,4.65,0,0,0-2.12,4.13,3.17,3.17,0,0,0,1.66,3c1.12.71,3.57,1.8,8.83,3a67.31,67.31,0,0,1,12.13,3.75,19.81,19.81,0,0,1,7.83,5.8,14.65,14.65,0,0,1,2.91,9.21A17.2,17.2,0,0,1,299,344.26a20.63,20.63,0,0,1-8.88,6.81A32,32,0,0,1,277.51,353.41ZM258.28,339.2s-.17,0-.43.32a2.4,2.4,0,0,0,.38,3.24l.1.08a23.54,23.54,0,0,0,8.14,4h0a38.51,38.51,0,0,0,11,1.55,27.1,27.1,0,0,0,10.61-1.94,15.79,15.79,0,0,0,6.79-5.14,12.1,12.1,0,0,0,2.31-7.38,9.64,9.64,0,0,0-1.86-6.14,15,15,0,0,0-5.9-4.3,63.14,63.14,0,0,0-11.21-3.44c-4.85-1.1-8.25-2.28-10.39-3.63a8.15,8.15,0,0,1-4-7.21,9.63,9.63,0,0,1,4.26-8.23c2.55-1.77,5.95-2.67,10.12-2.67a24.41,24.41,0,0,1,8.51,1.33,30.33,30.33,0,0,1,6.9,3.83,8.29,8.29,0,0,0,1.29.64,2.18,2.18,0,0,0,.66.1c.06,0,.18,0,.44-.32a2.11,2.11,0,0,0,.46-1.38,2.42,2.42,0,0,0-.16-1,3.79,3.79,0,0,0-.9-1c-4.36-3.68-10.15-5.55-17.2-5.55a25.62,25.62,0,0,0-10.35,2,16.36,16.36,0,0,0-6.85,5.34,12.57,12.57,0,0,0-2.36,7.52,11,11,0,0,0,1.8,6.54,14,14,0,0,0,5.7,4.35,55.89,55.89,0,0,0,11.05,3.39c4.87,1.09,8.31,2.21,10.51,3.45a7.64,7.64,0,0,1,4.22,6.91,9.27,9.27,0,0,1-4.28,8.11c-2.54,1.66-5.95,2.46-10.41,2.46a31.93,31.93,0,0,1-9.12-1.23,27,27,0,0,1-7.93-3.94A4,4,0,0,0,258.28,339.2Z"/><path class="cls-1" d="M330.34,352.69h-16a7.48,7.48,0,0,1-5.41-2,7.25,7.25,0,0,1-2.1-5.43V298.17a7.23,7.23,0,0,1,2.1-5.43,7.47,7.47,0,0,1,5.41-2h16c9.94,0,17.82,2.75,23.42,8.17s8.48,13.11,8.48,22.76-2.85,17.39-8.48,22.84S340.28,352.69,330.34,352.69Zm-16-56.95a2.45,2.45,0,0,0-1.93.59c-.14.13-.58.55-.58,1.84v47.09a2.26,2.26,0,0,0,.58,1.84h0a2.5,2.5,0,0,0,1.93.59h16c8.6,0,15.31-2.28,20-6.77s6.95-10.95,6.95-19.25S355,307,350.29,302.5s-11.35-6.76-20-6.76Zm15.35,48.46h-9.94a2.5,2.5,0,0,1-2.5-2.5v-40a2.5,2.5,0,0,1,2.5-2.5h9.94c14.48,0,22.13,7.76,22.13,22.45S344.17,344.2,329.69,344.2Zm-7.44-5h7.44c11.69,0,17.13-5.57,17.13-17.53s-5.44-17.45-17.13-17.45h-7.44Z"/><path class="cls-1" d="M344.74,169.77a17.52,17.52,0,0,1-17.5-17.5,2.5,2.5,0,1,1,5,0,12.5,12.5,0,1,0,12.5-12.5,2.5,2.5,0,0,1,0-5,17.5,17.5,0,0,1,0,35Z"/><path class="cls-1" d="M344.74,420.21a17.52,17.52,0,0,1-17.5-17.5,2.5,2.5,0,0,1,5,0,12.5,12.5,0,1,0,12.5-12.5,2.5,2.5,0,0,1,0-5,17.5,17.5,0,0,1,0,35Z"/><path class="cls-1" d="M167.26,420.21a17.52,17.52,0,0,1-17.5-17.5,2.5,2.5,0,0,1,5,0,12.5,12.5,0,1,0,12.5-12.5,2.5,2.5,0,0,1,0-5,17.5,17.5,0,1,1,0,35Z"/><path class="cls-1" d="M167.26,169.77a17.52,17.52,0,0,1-17.5-17.5,2.5,2.5,0,1,1,5,0,12.5,12.5,0,1,0,12.5-12.5,2.5,2.5,0,0,1,0-5,17.5,17.5,0,0,1,0,35Z"/><path class="cls-1" d="M186.7,119.77h-20a2.49,2.49,0,0,1-2.5-2.5V63.06a6,6,0,0,1,6-6h13.09a6,6,0,0,1,6,6v54.21A2.5,2.5,0,0,1,186.7,119.77Zm-17.5-5h15V63.06a1,1,0,0,0-1-1H170.15a1,1,0,0,0-1,1Z"/><path class="cls-1" d="M226.35,119.77h-20a2.5,2.5,0,0,1-2.5-2.5V83.06a6,6,0,0,1,6-6h13.09a6,6,0,0,1,6,6v34.21A2.5,2.5,0,0,1,226.35,119.77Zm-17.5-5h15V83.06a1,1,0,0,0-1-1H209.8a1,1,0,0,0-1,1Z"/><path class="cls-1" d="M266,119.77H246a2.5,2.5,0,0,1-2.5-2.5V63.06a6,6,0,0,1,6-6h13.08a6,6,0,0,1,6,6v54.21A2.5,2.5,0,0,1,266,119.77Zm-17.5-5h15V63.06a1,1,0,0,0-1-1H249.46a1,1,0,0,0-1,1Z"/><path class="cls-1" d="M305.65,119.77h-20a2.5,2.5,0,0,1-2.5-2.5V83.06a6,6,0,0,1,6-6H302.2a6,6,0,0,1,5.95,6v34.21A2.5,2.5,0,0,1,305.65,119.77Zm-17.5-5h15V83.06a1,1,0,0,0-.95-1H289.11a1,1,0,0,0-1,1Z"/><path class="cls-1" d="M345.3,119.77h-20a2.5,2.5,0,0,1-2.5-2.5V63.06a6,6,0,0,1,6-6h13.09a6,6,0,0,1,5.95,6v54.21A2.49,2.49,0,0,1,345.3,119.77Zm-17.5-5h15V63.06a1,1,0,0,0-.95-1H328.76a1,1,0,0,0-1,1Z"/></g></svg>